<mxfile host="Electron" agent="Mozilla/5.0 (X11; Linux x86_64) AppleWebKit/537.36 (KHTML, like Gecko) draw.io/25.0.2 Chrome/128.0.6613.186 Electron/32.2.5 Safari/537.36" version="25.0.2" pages="3">
  <diagram name="ページ1" id="zdsRnPp1UxL5ac6Z3yX9">
    <mxGraphModel dx="566" dy="366" grid="1" gridSize="10" guides="1" tooltips="1" connect="1" arrows="1" fold="1" page="1" pageScale="1" pageWidth="827" pageHeight="1169" math="0" shadow="0">
      <root>
        <mxCell id="0" />
        <mxCell id="1" parent="0" />
        <mxCell id="XS6TaPqiP7GbCyD0bsGJ-18" value="" style="endArrow=classic;html=1;rounded=0;" edge="1" parent="1">
          <mxGeometry width="50" height="50" relative="1" as="geometry">
            <mxPoint x="480" y="360" as="sourcePoint" />
            <mxPoint x="540" y="300" as="targetPoint" />
          </mxGeometry>
        </mxCell>
        <mxCell id="XS6TaPqiP7GbCyD0bsGJ-31" value="V" style="edgeLabel;html=1;align=center;verticalAlign=middle;resizable=0;points=[];" vertex="1" connectable="0" parent="XS6TaPqiP7GbCyD0bsGJ-18">
          <mxGeometry x="-0.0671" y="1" relative="1" as="geometry">
            <mxPoint x="43" y="-31" as="offset" />
          </mxGeometry>
        </mxCell>
        <mxCell id="XS6TaPqiP7GbCyD0bsGJ-11" value="" style="endArrow=none;html=1;rounded=0;" edge="1" parent="1">
          <mxGeometry width="50" height="50" relative="1" as="geometry">
            <mxPoint x="400" y="360" as="sourcePoint" />
            <mxPoint x="600" y="360" as="targetPoint" />
          </mxGeometry>
        </mxCell>
        <mxCell id="XS6TaPqiP7GbCyD0bsGJ-12" value="" style="endArrow=none;html=1;rounded=0;" edge="1" parent="1">
          <mxGeometry width="50" height="50" relative="1" as="geometry">
            <mxPoint x="480" y="430" as="sourcePoint" />
            <mxPoint x="480" y="240" as="targetPoint" />
          </mxGeometry>
        </mxCell>
        <mxCell id="XS6TaPqiP7GbCyD0bsGJ-10" value="" style="group;rotation=45;" vertex="1" connectable="0" parent="1">
          <mxGeometry x="426" y="320" width="108" height="99" as="geometry" />
        </mxCell>
        <mxCell id="XS6TaPqiP7GbCyD0bsGJ-2" value="" style="whiteSpace=wrap;html=1;aspect=fixed;rotation=45;" vertex="1" parent="XS6TaPqiP7GbCyD0bsGJ-10">
          <mxGeometry x="8" y="9" width="80" height="80" as="geometry" />
        </mxCell>
        <mxCell id="XS6TaPqiP7GbCyD0bsGJ-4" value="" style="rounded=0;whiteSpace=wrap;html=1;fillColor=#6d8764;fontColor=#ffffff;strokeColor=none;rotation=45;" vertex="1" parent="XS6TaPqiP7GbCyD0bsGJ-10">
          <mxGeometry x="73" y="66" width="10" height="30" as="geometry" />
        </mxCell>
        <mxCell id="XS6TaPqiP7GbCyD0bsGJ-5" value="" style="rounded=0;whiteSpace=wrap;html=1;fillColor=#6d8764;fontColor=#ffffff;strokeColor=none;rotation=45;" vertex="1" parent="XS6TaPqiP7GbCyD0bsGJ-10">
          <mxGeometry x="10" y="2" width="10" height="30" as="geometry" />
        </mxCell>
        <mxCell id="XS6TaPqiP7GbCyD0bsGJ-6" value="" style="rounded=0;whiteSpace=wrap;html=1;rotation=45;" vertex="1" parent="XS6TaPqiP7GbCyD0bsGJ-10">
          <mxGeometry x="63" y="11" width="30" height="10" as="geometry" />
        </mxCell>
        <mxCell id="XS6TaPqiP7GbCyD0bsGJ-48" value="" style="curved=1;endArrow=classic;html=1;rounded=0;" edge="1" parent="XS6TaPqiP7GbCyD0bsGJ-10">
          <mxGeometry width="50" height="50" relative="1" as="geometry">
            <mxPoint x="54" y="72" as="sourcePoint" />
            <mxPoint x="33" y="42" as="targetPoint" />
            <Array as="points">
              <mxPoint x="73" y="62" />
              <mxPoint x="73" y="42" />
              <mxPoint x="53" y="32" />
            </Array>
          </mxGeometry>
        </mxCell>
        <mxCell id="XS6TaPqiP7GbCyD0bsGJ-49" value="ω" style="text;html=1;align=center;verticalAlign=middle;resizable=0;points=[];autosize=1;strokeColor=none;fillColor=none;" vertex="1" parent="XS6TaPqiP7GbCyD0bsGJ-10">
          <mxGeometry x="39" y="32" width="30" height="30" as="geometry" />
        </mxCell>
        <mxCell id="XS6TaPqiP7GbCyD0bsGJ-13" value="x" style="text;html=1;align=center;verticalAlign=middle;resizable=0;points=[];autosize=1;strokeColor=none;fillColor=none;" vertex="1" parent="1">
          <mxGeometry x="600" y="340" width="30" height="30" as="geometry" />
        </mxCell>
        <mxCell id="XS6TaPqiP7GbCyD0bsGJ-14" value="y" style="text;html=1;align=center;verticalAlign=middle;resizable=0;points=[];autosize=1;strokeColor=none;fillColor=none;" vertex="1" parent="1">
          <mxGeometry x="465" y="210" width="30" height="30" as="geometry" />
        </mxCell>
        <mxCell id="XS6TaPqiP7GbCyD0bsGJ-26" value="" style="curved=1;endArrow=classic;html=1;rounded=0;" edge="1" parent="1">
          <mxGeometry width="50" height="50" relative="1" as="geometry">
            <mxPoint x="426" y="340" as="sourcePoint" />
            <mxPoint x="446" y="320" as="targetPoint" />
            <Array as="points">
              <mxPoint x="426" y="320" />
            </Array>
          </mxGeometry>
        </mxCell>
        <mxCell id="XS6TaPqiP7GbCyD0bsGJ-27" value="" style="curved=1;endArrow=classic;html=1;rounded=0;" edge="1" parent="1">
          <mxGeometry width="50" height="50" relative="1" as="geometry">
            <mxPoint x="499" y="419" as="sourcePoint" />
            <mxPoint x="520" y="400" as="targetPoint" />
            <Array as="points">
              <mxPoint x="510" y="420" />
              <mxPoint x="519" y="409" />
            </Array>
          </mxGeometry>
        </mxCell>
        <mxCell id="XS6TaPqiP7GbCyD0bsGJ-29" value="&lt;div style=&quot;color: rgb(101, 123, 131); background-color: rgb(253, 246, 227); font-family: &amp;quot;Droid Sans Mono&amp;quot;, &amp;quot;monospace&amp;quot;, monospace; font-size: 11.5445px; line-height: 15px; white-space-collapse: preserve;&quot;&gt;&lt;br&gt;&lt;/div&gt;" style="text;html=1;align=center;verticalAlign=middle;resizable=0;points=[];autosize=1;strokeColor=none;fillColor=none;" vertex="1" parent="1">
          <mxGeometry x="520" y="368" width="20" height="30" as="geometry" />
        </mxCell>
        <mxCell id="XS6TaPqiP7GbCyD0bsGJ-39" value="" style="endArrow=none;html=1;rounded=0;entryX=0;entryY=0;entryDx=0;entryDy=0;" edge="1" parent="1" target="XS6TaPqiP7GbCyD0bsGJ-37">
          <mxGeometry width="50" height="50" relative="1" as="geometry">
            <mxPoint x="260" y="344" as="sourcePoint" />
            <mxPoint x="400" y="289" as="targetPoint" />
          </mxGeometry>
        </mxCell>
        <mxCell id="XS6TaPqiP7GbCyD0bsGJ-35" value="" style="whiteSpace=wrap;html=1;aspect=fixed;rotation=0;" vertex="1" parent="1">
          <mxGeometry x="301" y="318" width="80" height="80" as="geometry" />
        </mxCell>
        <mxCell id="XS6TaPqiP7GbCyD0bsGJ-36" value="" style="rounded=0;whiteSpace=wrap;html=1;fillColor=#6d8764;fontColor=#ffffff;strokeColor=none;rotation=0;" vertex="1" parent="1">
          <mxGeometry x="381" y="344" width="10" height="30" as="geometry" />
        </mxCell>
        <mxCell id="XS6TaPqiP7GbCyD0bsGJ-37" value="" style="rounded=0;whiteSpace=wrap;html=1;fillColor=#6d8764;fontColor=#ffffff;strokeColor=none;rotation=0;" vertex="1" parent="1">
          <mxGeometry x="291" y="344" width="10" height="30" as="geometry" />
        </mxCell>
        <mxCell id="XS6TaPqiP7GbCyD0bsGJ-38" value="" style="rounded=0;whiteSpace=wrap;html=1;rotation=0;" vertex="1" parent="1">
          <mxGeometry x="324" y="309" width="30" height="10" as="geometry" />
        </mxCell>
        <mxCell id="XS6TaPqiP7GbCyD0bsGJ-41" value="" style="endArrow=none;html=1;rounded=0;entryX=0;entryY=0;entryDx=0;entryDy=0;" edge="1" parent="1">
          <mxGeometry width="50" height="50" relative="1" as="geometry">
            <mxPoint x="260" y="374" as="sourcePoint" />
            <mxPoint x="290" y="374" as="targetPoint" />
          </mxGeometry>
        </mxCell>
        <mxCell id="XS6TaPqiP7GbCyD0bsGJ-42" value="" style="endArrow=classic;html=1;rounded=0;startArrow=block;startFill=1;" edge="1" parent="1">
          <mxGeometry width="50" height="50" relative="1" as="geometry">
            <mxPoint x="270" y="369" as="sourcePoint" />
            <mxPoint x="270" y="349" as="targetPoint" />
          </mxGeometry>
        </mxCell>
        <mxCell id="XS6TaPqiP7GbCyD0bsGJ-45" value="ｒ" style="text;html=1;align=center;verticalAlign=middle;resizable=0;points=[];autosize=1;strokeColor=none;fillColor=none;" vertex="1" parent="1">
          <mxGeometry x="230" y="344" width="40" height="30" as="geometry" />
        </mxCell>
        <mxCell id="XS6TaPqiP7GbCyD0bsGJ-46" value="" style="endArrow=none;html=1;rounded=0;exitX=0;exitY=0.5;exitDx=0;exitDy=0;entryX=1;entryY=0.5;entryDx=0;entryDy=0;" edge="1" parent="1" source="XS6TaPqiP7GbCyD0bsGJ-37" target="XS6TaPqiP7GbCyD0bsGJ-36">
          <mxGeometry width="50" height="50" relative="1" as="geometry">
            <mxPoint x="340" y="389" as="sourcePoint" />
            <mxPoint x="390" y="339" as="targetPoint" />
          </mxGeometry>
        </mxCell>
        <mxCell id="XS6TaPqiP7GbCyD0bsGJ-47" value="L　" style="edgeLabel;html=1;align=center;verticalAlign=middle;resizable=0;points=[];" vertex="1" connectable="0" parent="XS6TaPqiP7GbCyD0bsGJ-46">
          <mxGeometry x="-0.1486" relative="1" as="geometry">
            <mxPoint x="8" y="-1" as="offset" />
          </mxGeometry>
        </mxCell>
      </root>
    </mxGraphModel>
  </diagram>
  <diagram id="8NhiisWgLi61m2C4kDqD" name="ページ2">
    <mxGraphModel dx="684" dy="443" grid="1" gridSize="10" guides="1" tooltips="1" connect="1" arrows="1" fold="1" page="1" pageScale="1" pageWidth="827" pageHeight="1169" math="0" shadow="0">
      <root>
        <mxCell id="0" />
        <mxCell id="1" parent="0" />
        <mxCell id="BNyVcEvlVcrWh69FQcCf-19" value="" style="edgeStyle=orthogonalEdgeStyle;rounded=0;orthogonalLoop=1;jettySize=auto;html=1;" edge="1" parent="1" source="BNyVcEvlVcrWh69FQcCf-1" target="BNyVcEvlVcrWh69FQcCf-3">
          <mxGeometry relative="1" as="geometry" />
        </mxCell>
        <mxCell id="BNyVcEvlVcrWh69FQcCf-1" value="1&lt;div&gt;&lt;i style=&quot;background-color: initial;&quot;&gt;s&lt;/i&gt;&lt;/div&gt;" style="rounded=0;whiteSpace=wrap;html=1;" vertex="1" parent="1">
          <mxGeometry x="360" y="190" width="40" height="60" as="geometry" />
        </mxCell>
        <mxCell id="BNyVcEvlVcrWh69FQcCf-2" value="" style="endArrow=none;html=1;rounded=0;" edge="1" parent="1">
          <mxGeometry width="50" height="50" relative="1" as="geometry">
            <mxPoint x="370" y="219.83" as="sourcePoint" />
            <mxPoint x="390" y="219.83" as="targetPoint" />
            <Array as="points">
              <mxPoint x="380" y="219.83" />
              <mxPoint x="390" y="219.83" />
            </Array>
          </mxGeometry>
        </mxCell>
        <mxCell id="BNyVcEvlVcrWh69FQcCf-13" style="edgeStyle=orthogonalEdgeStyle;rounded=0;orthogonalLoop=1;jettySize=auto;html=1;entryX=0;entryY=0.5;entryDx=0;entryDy=0;" edge="1" parent="1" source="BNyVcEvlVcrWh69FQcCf-3" target="BNyVcEvlVcrWh69FQcCf-12">
          <mxGeometry relative="1" as="geometry" />
        </mxCell>
        <mxCell id="BNyVcEvlVcrWh69FQcCf-3" value="&lt;font style=&quot;font-size: 20px;&quot;&gt;&lt;i style=&quot;&quot;&gt;k&lt;/i&gt;I&lt;/font&gt;" style="rounded=0;whiteSpace=wrap;html=1;" vertex="1" parent="1">
          <mxGeometry x="440" y="200" width="60" height="40" as="geometry" />
        </mxCell>
        <mxCell id="BNyVcEvlVcrWh69FQcCf-14" style="edgeStyle=orthogonalEdgeStyle;rounded=0;orthogonalLoop=1;jettySize=auto;html=1;endArrow=oval;endFill=1;" edge="1" parent="1" source="BNyVcEvlVcrWh69FQcCf-4">
          <mxGeometry relative="1" as="geometry">
            <mxPoint x="530" y="300" as="targetPoint" />
          </mxGeometry>
        </mxCell>
        <mxCell id="BNyVcEvlVcrWh69FQcCf-4" value="&lt;font style=&quot;font-size: 20px;&quot;&gt;&lt;i style=&quot;&quot;&gt;kP&lt;/i&gt;&lt;/font&gt;" style="rounded=0;whiteSpace=wrap;html=1;" vertex="1" parent="1">
          <mxGeometry x="440" y="280" width="60" height="40" as="geometry" />
        </mxCell>
        <mxCell id="BNyVcEvlVcrWh69FQcCf-15" style="edgeStyle=orthogonalEdgeStyle;rounded=0;orthogonalLoop=1;jettySize=auto;html=1;endArrow=oval;endFill=1;" edge="1" parent="1" source="BNyVcEvlVcrWh69FQcCf-5">
          <mxGeometry relative="1" as="geometry">
            <mxPoint x="530" y="300" as="targetPoint" />
          </mxGeometry>
        </mxCell>
        <mxCell id="BNyVcEvlVcrWh69FQcCf-5" value="&lt;font style=&quot;font-size: 20px;&quot;&gt;&lt;i style=&quot;&quot;&gt;kD&lt;/i&gt;&lt;/font&gt;" style="rounded=0;whiteSpace=wrap;html=1;" vertex="1" parent="1">
          <mxGeometry x="440" y="360" width="60" height="40" as="geometry" />
        </mxCell>
        <mxCell id="BNyVcEvlVcrWh69FQcCf-21" value="" style="edgeStyle=orthogonalEdgeStyle;rounded=0;orthogonalLoop=1;jettySize=auto;html=1;" edge="1" parent="1" source="BNyVcEvlVcrWh69FQcCf-6" target="BNyVcEvlVcrWh69FQcCf-8">
          <mxGeometry relative="1" as="geometry" />
        </mxCell>
        <mxCell id="BNyVcEvlVcrWh69FQcCf-6" value="1&lt;div&gt;&lt;i style=&quot;background-color: initial;&quot;&gt;1+Ts&lt;/i&gt;&lt;/div&gt;" style="rounded=0;whiteSpace=wrap;html=1;" vertex="1" parent="1">
          <mxGeometry x="270" y="360" width="60" height="40" as="geometry" />
        </mxCell>
        <mxCell id="BNyVcEvlVcrWh69FQcCf-7" value="" style="endArrow=none;html=1;rounded=0;" edge="1" parent="1">
          <mxGeometry width="50" height="50" relative="1" as="geometry">
            <mxPoint x="280" y="380" as="sourcePoint" />
            <mxPoint x="310" y="380" as="targetPoint" />
            <Array as="points">
              <mxPoint x="300" y="379.83000000000004" />
              <mxPoint x="310" y="379.83000000000004" />
              <mxPoint x="320" y="380" />
            </Array>
          </mxGeometry>
        </mxCell>
        <mxCell id="BNyVcEvlVcrWh69FQcCf-20" value="" style="edgeStyle=orthogonalEdgeStyle;rounded=0;orthogonalLoop=1;jettySize=auto;html=1;" edge="1" parent="1" source="BNyVcEvlVcrWh69FQcCf-8" target="BNyVcEvlVcrWh69FQcCf-5">
          <mxGeometry relative="1" as="geometry" />
        </mxCell>
        <mxCell id="BNyVcEvlVcrWh69FQcCf-8" value="&lt;font style=&quot;font-size: 20px;&quot;&gt;&lt;i style=&quot;&quot;&gt;s&lt;/i&gt;&lt;/font&gt;" style="rounded=0;whiteSpace=wrap;html=1;" vertex="1" parent="1">
          <mxGeometry x="360" y="360" width="40" height="40" as="geometry" />
        </mxCell>
        <mxCell id="BNyVcEvlVcrWh69FQcCf-9" value="ローパスフィルタ" style="text;html=1;align=center;verticalAlign=middle;resizable=0;points=[];autosize=1;strokeColor=none;fillColor=none;" vertex="1" parent="1">
          <mxGeometry x="240" y="400" width="120" height="30" as="geometry" />
        </mxCell>
        <mxCell id="BNyVcEvlVcrWh69FQcCf-27" style="edgeStyle=orthogonalEdgeStyle;rounded=0;orthogonalLoop=1;jettySize=auto;html=1;" edge="1" parent="1" source="BNyVcEvlVcrWh69FQcCf-12">
          <mxGeometry relative="1" as="geometry">
            <mxPoint x="720" y="300" as="targetPoint" />
          </mxGeometry>
        </mxCell>
        <mxCell id="BNyVcEvlVcrWh69FQcCf-12" value="&lt;font style=&quot;font-size: 20px;&quot;&gt;&lt;i style=&quot;&quot;&gt;モータ&lt;/i&gt;&lt;/font&gt;" style="rounded=0;whiteSpace=wrap;html=1;" vertex="1" parent="1">
          <mxGeometry x="560" y="280" width="80" height="40" as="geometry" />
        </mxCell>
        <mxCell id="BNyVcEvlVcrWh69FQcCf-16" value="＋" style="text;html=1;align=center;verticalAlign=middle;resizable=0;points=[];autosize=1;strokeColor=none;fillColor=none;" vertex="1" parent="1">
          <mxGeometry x="500" y="268" width="40" height="30" as="geometry" />
        </mxCell>
        <mxCell id="BNyVcEvlVcrWh69FQcCf-17" value="＋" style="text;html=1;align=center;verticalAlign=middle;resizable=0;points=[];autosize=1;strokeColor=none;fillColor=none;" vertex="1" parent="1">
          <mxGeometry x="500" y="298" width="40" height="30" as="geometry" />
        </mxCell>
        <mxCell id="BNyVcEvlVcrWh69FQcCf-18" value="＋" style="text;html=1;align=center;verticalAlign=middle;resizable=0;points=[];autosize=1;strokeColor=none;fillColor=none;" vertex="1" parent="1">
          <mxGeometry x="520" y="268" width="40" height="30" as="geometry" />
        </mxCell>
        <mxCell id="BNyVcEvlVcrWh69FQcCf-23" style="edgeStyle=orthogonalEdgeStyle;rounded=0;orthogonalLoop=1;jettySize=auto;html=1;entryX=0;entryY=0.5;entryDx=0;entryDy=0;" edge="1" parent="1" source="BNyVcEvlVcrWh69FQcCf-22" target="BNyVcEvlVcrWh69FQcCf-6">
          <mxGeometry relative="1" as="geometry">
            <Array as="points">
              <mxPoint x="215" y="380" />
            </Array>
          </mxGeometry>
        </mxCell>
        <mxCell id="BNyVcEvlVcrWh69FQcCf-24" style="edgeStyle=orthogonalEdgeStyle;rounded=0;orthogonalLoop=1;jettySize=auto;html=1;entryX=0;entryY=0.5;entryDx=0;entryDy=0;" edge="1" parent="1" source="BNyVcEvlVcrWh69FQcCf-22" target="BNyVcEvlVcrWh69FQcCf-1">
          <mxGeometry relative="1" as="geometry">
            <Array as="points">
              <mxPoint x="215" y="220" />
            </Array>
          </mxGeometry>
        </mxCell>
        <mxCell id="BNyVcEvlVcrWh69FQcCf-25" style="edgeStyle=orthogonalEdgeStyle;rounded=0;orthogonalLoop=1;jettySize=auto;html=1;entryX=0;entryY=0.5;entryDx=0;entryDy=0;" edge="1" parent="1" source="BNyVcEvlVcrWh69FQcCf-22" target="BNyVcEvlVcrWh69FQcCf-4">
          <mxGeometry relative="1" as="geometry" />
        </mxCell>
        <mxCell id="BNyVcEvlVcrWh69FQcCf-22" value="" style="ellipse;whiteSpace=wrap;html=1;aspect=fixed;" vertex="1" parent="1">
          <mxGeometry x="210" y="295" width="10" height="10" as="geometry" />
        </mxCell>
        <mxCell id="BNyVcEvlVcrWh69FQcCf-29" value="" style="edgeStyle=orthogonalEdgeStyle;rounded=0;orthogonalLoop=1;jettySize=auto;html=1;" edge="1" parent="1" source="BNyVcEvlVcrWh69FQcCf-26" target="BNyVcEvlVcrWh69FQcCf-22">
          <mxGeometry relative="1" as="geometry" />
        </mxCell>
        <mxCell id="BNyVcEvlVcrWh69FQcCf-26" value="" style="ellipse;whiteSpace=wrap;html=1;aspect=fixed;" vertex="1" parent="1">
          <mxGeometry x="110" y="295" width="10" height="10" as="geometry" />
        </mxCell>
        <mxCell id="BNyVcEvlVcrWh69FQcCf-28" value="" style="endArrow=classic;html=1;rounded=0;entryX=0.5;entryY=1;entryDx=0;entryDy=0;" edge="1" parent="1" target="BNyVcEvlVcrWh69FQcCf-26">
          <mxGeometry width="50" height="50" relative="1" as="geometry">
            <mxPoint x="680" y="300" as="sourcePoint" />
            <mxPoint x="420" y="270" as="targetPoint" />
            <Array as="points">
              <mxPoint x="680" y="440" />
              <mxPoint x="115" y="440" />
            </Array>
          </mxGeometry>
        </mxCell>
        <mxCell id="BNyVcEvlVcrWh69FQcCf-30" value="" style="endArrow=classic;html=1;rounded=0;entryX=0;entryY=0.5;entryDx=0;entryDy=0;" edge="1" parent="1" target="BNyVcEvlVcrWh69FQcCf-26">
          <mxGeometry width="50" height="50" relative="1" as="geometry">
            <mxPoint x="40" y="300" as="sourcePoint" />
            <mxPoint x="200" y="280" as="targetPoint" />
          </mxGeometry>
        </mxCell>
        <mxCell id="BNyVcEvlVcrWh69FQcCf-31" value="目標値" style="text;html=1;align=center;verticalAlign=middle;resizable=0;points=[];autosize=1;strokeColor=none;fillColor=none;" vertex="1" parent="1">
          <mxGeometry x="30" y="268" width="60" height="30" as="geometry" />
        </mxCell>
        <mxCell id="BNyVcEvlVcrWh69FQcCf-32" value="出力値" style="text;html=1;align=center;verticalAlign=middle;resizable=0;points=[];autosize=1;strokeColor=none;fillColor=none;" vertex="1" parent="1">
          <mxGeometry x="670" y="268" width="60" height="30" as="geometry" />
        </mxCell>
      </root>
    </mxGraphModel>
  </diagram>
  <diagram id="Yff8tuNvZg-6iiRRiLEK" name="ページ3">
    <mxGraphModel dx="821" dy="531" grid="1" gridSize="10" guides="1" tooltips="1" connect="1" arrows="1" fold="1" page="1" pageScale="1" pageWidth="827" pageHeight="1169" math="0" shadow="0">
      <root>
        <mxCell id="0" />
        <mxCell id="1" parent="0" />
        <mxCell id="ybAWDosg4LO7QRCugobg-1" value="" style="shape=image;verticalLabelPosition=bottom;labelBackgroundColor=default;verticalAlign=top;aspect=fixed;imageAspect=0;image=data:image/png,iVBORw0KGgoAAAANSUhEUgAAAmoAAAFZCAYAAAAo1APhAABYG0lEQVR4nO3dBVjUWRcG8IuUgBiICAbYit3dYCt2d6JiIaKAtXaiIDa22N2xtrh2d7fYiigSAh8v7uznuirhzNyZ4f19j4/DAMPx22Hm/O+95xyDmJgYQUSk7YKDg9NEREQYZciQ4ZXsWIiIlMVAdgBERMrQokWLtXv37q0Ze/GpJzsWIiJlYaJGREREpKGYqBERERFpKCZqRERERBqKiRoRERGRhmKiRkRERKShmKgRERERaSgmakREREQaiokaERERkYZiokZERESkoZioEREREWkoJmpEREREGoqJGhEREZGGYqJGREREpKGYqBERERFpKCZqRERERBqKiRoRERGRhmKiRkRERKShmKgRERERaSgmakREREQaiokaERERkYZiokZERESkoZioEREREWkoJmpEREREGoqJGhEREZGGYqJGREREpKGYqBERERFpKCZqRERERBqKiRoRERGRhmKiRkRERKShmKgRERERaSgmakREREQaiokaERERkYZiokZERGoRHh5uHBwcnObMmTMl169f3+zatWv5nz17lundu3fp0qZN+z5z5sxP7e3trzdt2nRDqVKlTuM+Y2PjcNlxE8nERI2IiFTqy5cvBlevXi2wffv2+suWLesQFBSUM0OGDPoWFhYiW7ZsIleuXPiaVGFhYVmOHDlSZuPGje2trKzut2/ffrmTk9PWAgUKXDU0NIyU/e8gkoGJGhERqUxoaKjpihUr2i5cuLDr3bt3i5coUcKwXbt2omTJkiJPnjwiXbp0wtTUVHz+/Fm8e/dO3Lp1S5w9e1b/2LFjufz8/IYjuevatetCJG2xXxcq+99DpG5M1IiISCXevn1rMXny5MGxSVo3Gxub9GPGjBGOjo5xq2gGBv9++0mZMmVc0pYjRw5Ro0YN8fDhQ7Fv3z6D2bNnlxo6dGjO27dv5/b09JyQPn36N5L+OURSMFEjIiKl+/Tpk9mECRM8582b51ywYEHzmTNnigIFCghjY+N4v1dfXz8uYevYsaMoVaqU6Nevn8XcuXN7RkZGGo4fP97LzMzskxr+CUQagYkaEREpVVRUlP6iRYu64E/evHlT7d69W5ibmws9Pb1EPQ6SuqJFi4odO3Zglc0U59vs7Owe9u/f3zc2mYtSUfhEGoWJGhERKdXZs2dLLF26tKOVlZVFbHIlUqdOneTHQnKH71+5cqWek5NT2uXLl7cvV67ccfxRYshEGouJGhERKQ22PHfs2FHvwYMHhadNmxZX0akMdnZ2Yvjw4aJPnz4Ft23b1qBgwYJXzM3NQ5Ty4EQajIkaEREpTVBQkM2aNWtaVqxY0bBy5crC0NBQKY+L4oMKFSqIKlWqGGzYsKFpu3btAvLnz39NKQ9OpMGYqBERkdKcP3++2IsXL3L26tVLZMmSRamPbWNjIxwcHMT+/ftz4uegOa6enl6MUn8IkYZhokZEREqDbc/YhMqgcOHC/2nB8bvweAULFhRZs2bV37VrV51WrVqtZlEB6TomakREpDQYC5UpUyaRM2dOlTx+9uzZRebMmcWNGzfyxcTEJK6MlEgLMVEjIiKlwRk1a2vr36r0/BU8bqpUqcSVK1esmahRcsBEjYiIlAYD1tH/zMTERCWPj8fF479//z6tSn4AkYZhokZEREqDlhmRkZFm4eHhCZpCkFh43NjHx6raR6U/OJEGYqJGRERKY21t/Tw0NNT6w4cPKtn+xON+/Pgx7uew4pOSAyZqRESkNDlz5rx7+/btoo8ePVJ6ew548uSJeP78OYoK7jNRo+SAiRoRESlN/fr1t7u6uja5evWqXtmyZUWKFCmU9tjR0dHi+vXr4sGDBzE9e/bcFfvY0Up7cCINxUSNiIiUpkyZMifNzMyeBQYGZm7QoAG2KJX22G/evBFHjx5FQUEQfg5X1Cg5YKJGRERKkylTpmeNGzfetHHjxl7Hjx/Xd3JyEvr6+r/9uFFRUeLUqVNiz549UbGPuTVr1qyPlRAukcZjokZEREqTOnXqD0jU9u3b5+jn55evWLFiIlu2bL/9uEFBQcLHx0eYmZndbdKkycZ06dK9+/1oiTQfEzUiIlIabEdiW7Jly5ZrZsyYMXDQoEHmAQEBImXKlEl+zLCwMOHm5ibOnDnz0cXFZV25cuWOc9uTkgsmakREpFRmZmafXF1dp9+8eTPv+vXrmzVp0sQAyZqFhUWiH+vdu3eiY8eOYufOnVENGzbcG5v4TWUPNUpOmKgREZHSpUmTJnjatGkDw8PDjXfv3l0nNslKOWbMGFG0aNG4/mq/qgZFdWdISIi4ePGiGDFihDh9+nRYnTp19vn5+fVNmzbte/X9K4jkY6JGREQqYWNjE7R48eLOo0aNGrl58+ZGbdq0sW3cuLF+zZo144a2Z8yYUZiamgojIyMREREhQkNDxYsXL8S9e/fEvn37xIYNG6JiP/e4e/fuW/AYSP5k/5uI1I2JGhERqQySq/Hjx3tVqVLlMJK1LVu21Fi7dq1Nvnz5UmTPnh2fjzu/hnNowcHB6JEmbty4EW1oaPjc0dFxHwoTatWqtcfExOSz7H8LkQxM1IiISKViE7EwtNQoW7bsiY4dOy49e/ZsiYMHD1Y7d+5ctufPn1u/efMmfaw3GTNmfGFnZ/fQ3d39YMmSJc/Y29tft7KyesnGtpScMVEjIiKVQ5UmEjH8QdVmp06dlkRERBjt3r27dpcuXRaNHTt2WMOGDbcYGRlFoFjA2Ng4XHbMRJqAiRoREakVkjBFImZpafkaf2NFDWfa5EZGpHmYqBERERFpKCZqRERERBqKiRoRERGRhmKiRkRERKSh/knUYmJi9B4+fGiHUmhTU9NQmUERERERJSenT58uFev09/fHJWpRUVH6+/fvd3B3d5/Sq1evOc7OzvM48JaIiNT1XtCiRYu1qv4ZWJBQ9c8gSgokadWrVz+AGblDhw4d9217mrhE7fr16/YTJ070QH8bBweH/UzSiIgIateuvVuVj//y5Uurc+fOFS9atOgFa2vr56r8WUSaqkSJEmfRDHr58uXtc+bMebdt27YrDAwMvuBzBrjCwNDcQoUKXW7duvUqfIHsgImISDPs2rWrjioff9u2bQ0wtcDLy2t88+bN16nyZxFpKkzfmDx58uC0adO+j5X2y5cvBv8kalg9K1y48CUMvEU3aI7qICIiIlIv1Ad4eHhMxHE0jF1T3B+39WloaBiJLE5adERERETJHBbMvr+P7TmIiIiINFSiE7XIyEhDrMCpIhgiIiIiXRMdHZ0CfyfleFmiErVnz55l2r17d+0aNWr8mTVr1seJ/WFEREREycmnT5/MDh8+XAXbmuXKlTue2MWuBCdqL168yDhs2LCxGzZsaIrKHPRcy5Mnzy228iBK5qLuGs2tV3qpy563rb5eKuoJs3Ljzvx10LNWYWPxNmkP+inFsSFlPR2mXBkdHiO+XonatAhaeXaVQ0ubFNeVFjsRkQqhq8aCBQu6+fn59c2QIcMrHx+fAaVLlz6VmNwpQYkaWniMHz/ea8WKFW0jIiKMVq9e3er169eWEyZM8LS3t+eLJlFypp8zovucSZ7bSjmX2fkmOnvsK4b4dGJsiW6Ta3sdGV5sSMrYVC6xDxlydGRpZ5+rgxRJmtDP/KXVjBl/tLBJcUPp8RMRqcDnz59NRowYMRq90bDY9eDBg2yenp4Ttm/fXj8xE6ASlKgh80OPtbVr17Z4/vy5NZbxdu7cWffJkydZkLTlypXrTtL/KUSk7fSzd3k4Z+o2j5Jdty57FS2MRUyo3pkJ3XtOqHN076iSJnsT9WAhR9KMdPbzvhYRk/bvRxdZ287cMr1pxmV6yAKJiDTcu3fv0g0YMMAHeVNYWFhK3Ietz4YNG24xMjKKSMxjJXjrs2zZsieOHj1aqXHjxpuuXbuWH0UFZ8+eLYGRB5s2bWpcrFix8+zBRpRcpYix7TBr07RtJwM6bnzRFS8EMZ/PmU3uPta77rFxjmVMxYsEPUzMB/2Dw3sMnHkjouzXjExP6Gfr+Gi2d8MhVnoiLJ7vJiKSCjuQWMRCkrZ161YnNK7FYhembqBfbYcOHZYpGtkmVKKKCbByhhU0BHDs2LEKWNZ7/Phx1gYNGmybO3duT0dHx30c6E6UTKXIEtnGz2fEtuNtK6wNis6Hxa+wi94Fuo+uN/L4xPL9zISI58UpRi/4wNDyPWffGhD595annkH2iK6zp3jVs9S7p45/AhFRUqFR7dWrVwuMHj16BCZuIEnDAhYmPg0ZMmRS+/btlyd2NQ0S3Z6jQIECV2fMmNEPZ9Y2b97c6OPHj6mwHdqvX78ZCA6Ddb/tqEtEyUeKTC2DfH23Dj7WetWap1HCRMSE612Z3r3ziLon9npXNt/8q++Neb8vnVfPud63I2NSx92hZxCTs8fc1ZNqW6zjlicRaTokaYMGDZp64MCB6kjacF+RIkUuDh8+fAy2PJO665ikhrcoIMASnoWFxVuspKHAALOpsNyHZb+kPCYR6QK9GOtmPrv8tgUuaL78cV9UEcREXE/p5zx8cv2T089US6335IffFvNOf69nr8Hz734pqdjyNMzT6+688Y7D0uqJRF+BEhGpG86i3bt3LweSNCRlDg4O+/+IhZYcv9MhI8mTCXLkyHEP7TqsrKxejh07dlidOnV2YfK7iYnJ56Q+JhHpAD2rL42mzRzT4UiTykseRhWJETEi8ubsXM5e9cee8nPs8d/EK0bv7e4hVXovuOfyJUbEXejpGeUL6zt/nHv1NHrs10hEWgGrZ9jiRG5UpUqVw0jS8ufPf+13H/e3RkihJ8jgwYMnV61a9VDu3LlvI2n73YCISPvpWTZ4PWV2Z7dDDRduvv8lJpWIidS7M69na4/6p/bOqW2x6tutzJg3OywH917kHfd1cd9sHFOgv/+SUZXNtyflZ6dLl+4d/u7Vq9ccHNGI7+vPnDlTEk28FR/fv38/e0JmH7ds2XLN3r17a+J2xYoVA3EmJb7vQRHWt6+TOGxcqVKlo/F937hx44ZOnTp1EG6nTp36w8OHD+3i+x5Q/H8BY8aMGd6nT5+Z8X0PYsJFt+JjVK8l5Gfh/wNs/eB2s2bN1vv7+3eP73vw72jTps3KhDw+kaYzNjYOb9euXUCJEiXO2tjYBOGPMh73t2d9osNuhQoVjikjGCLSFXox6etMPjS326GZ9ebdGYKVspgv94wW9Bo8ocEZ/xP10v9dHBDzWn/boD5eSx5EFVVseaYsPPCa/8gKo1LFW3zwYziGgb9R7JSQr8c2heJ74kJK4PENnM9VfB9uJzY+wGHjhHwPtlQU36cYRZPYn4XGmwn5HiST335fQoWEhJgrvi80NNQ0Id+Df0ti/r8j0nTYVSxevPg5ZT4mh7ITkWropYuqMXHu5J4H6lSbdSuyDLZAox4sse3t1mDSmcUN22XQi4l4tcWtRp/lD3soOuLqmRT95O4/3K2smXguNXZSuYQmqUTJHX9RiEhl9NJUfz9unovbvlq+O25ExKTBkIJHAX0auTYo22FpxWPbBvZdMeVxlPi6+qJnGlNiiP88r1Im+37nZ3p4eEzE3wld6c+UKdMzxfdAQqvWMUqvcOHCl3AbZ3YT8j04YPztz7Kzs3uYkO+rXLnyEcX3YXslId8D3/4sjK1JyPfkzZv35rffl1BdunRZhA4AuF20aNELv/parFriyEzBggWvoBouVsPE/jyi5EKtiRrOIyT0hYmIdIFeTOqqY47P7/ent6P31T8i0B8t6onB6r6dx+gXvdh41ZOogn9/nTAr7XXe36PE+KSMnPoWRtsl5uuzZs36OLHfA506dVqS2O/R19ePSsrPwhm6b8/RJVRSfhaSp6R8X//+/X0T+rVLlizphF6cd+/ezYnZh0zUSBvgQgRnTNXd3F9tidrJkyfL4Be5bdu2K/r27eunrp9LRLKliq70h7/PwL3VHCZdCq+Cs2hRQbsyLgsSdRRfoZeqXMhwf/eBRY3FG4mBkhrgLNvQoUPH4faUKVPc2SSdNB1WgA8fPlwFvWK7du26EHmMOn++WhI1XDUNHDhw2qlTp0pfuHCh6Nu3by3wi5rYMQpEpKXMviZie6qM23s+LCb9vz6nZ/41kStkFG/1I2k/vNkFBQXZoLcU3vAwoFp2TES/giTNxcVlFsZnYpQmxkGhR5q6fr7KEzVU9aCE/c6dO7nwMSqPvL293VDp4+7uPgUtPn6nERwRaQfT0l4X/D12j6806szkzzFC/+u9eiJN3NZofm/D2JcLuRGSquF9wM/Pry+2jnx9ffvztZ80GZr579y5sy4WmtC2B/fhOTtt2rSB6JOmrsUmlSdq+IXEVVNwcHAajJ7ClRSWvufMmdMLJdxubm7eCT2IS0TazCS6hNvAJbUntnHdFCayxN2VwjKqqXvPOXkNRbDk4EgNMGoQF+s9evSYX6pUqdOfPn0yw2oFPhcYGFixVq1ae9AnTnacRFhMwmxzNK19+vRpZtyXKlWqj05OTlvR11CdO4Jq2frELx5+QTNmzPhixIgRozFqCr+gOFD66tWrDGhKiYHv6oiFiCQyNERPhm9WUfSFgYEej0AkA2iku2vXrjpowotpNrjv5cuXVthhwW1cyPfu3Xs2EzWS7c2bN+lnzpzZZ/r06a5YZMJ9aILdrVu3BZjliVxGnfGorZgAB0YxOR6l8NjyvHz5ciGsqG3cuLHJs2fPMqHyp2TJkmfUFQ8REakHtpDwuo/bWKHAkRfZMRH9yKNHj2wnT548OCAgoJ0iSUOlJ4ohu3fv7i/juavW9hxYKqxZs+ZeXFG5urpO/+uvv8qjKzj+RiUFkracOXPeVWdMRESkWhh/devWrTyYe4jRXrLjIfoRHMuaNWuWy6JFi7pgGgjus7S0fD18+PAx6BMoq0JZ7Q1vcRAPjRfnzp3bE9uhqKDAOTastjFJIyLSLeg9NWnSpCG4jUPYGDuo+Fz27NnvY0sU537Wrl3bAs125UVKyZ25uXmIo6PjPsztvXHjRj4sKmG3T93tOL4nbTJBoUKFLs+ePbs32nTkyZPnFqoqZMVCRESqgTM9Hz58SN20adMNKBaQHQ/Rr6Cx9MiRI0chP8GEjjp16uySHZPUEVL29vbXUf2JQ3rq7vRLRESqhWMtK1eubINB1WhuKzseooRo0aLF2ooVKwZmzpz5qexYQPqsT3VXTxARkeqhh+aAAQN80NV98ODBk7HNKTsmooTAES1NSdJAeqJGRES6x9/fv/vp06dLYZaqouKTiBKPiRoRESnVu3fv0qFSDrfRJ83MzOyT7JiItJVWJGqRkZGGZ8+eLYH+JZhiwLEjRESaC4ex0cwc53yaNWu2/mdfh/ZMr1+/tsRtNBn98uWLAWdAk6qgqGX37t2169evv11Wq42k0PhEDUka/o/19PScgKKDiRMnepQvX/4vFh8QEWkeDK5G+yV9ff0odHf/1YX1xYsXi6C6DsnZ/PnzexQvXvwc2jepM15KHjBnFlOQVq1a1XrIkCGTcH4SOYXsuBJC4xM1DEJFcoZffhxK7dmz51wsqTdp0mTjt/14iIhIPjQzxwV2nz59ZhYpUuTiz77u/fv3abHyhpGC9erV23HmzJmSo0aNGomO8Ohfpc6YSXehqOXcuXPFkUegPxqmZOBCws7O7mGHDh2W4YJCdozx0fhEDWcb0GcN/0ejU/DVq1cLoILoxYsXGTHOAWXfsmMkIiIh1q9f32zv3r01LSws3mJU1M++Dm+WmPuMgeyYn+ji4jILK2rz5s1zRm9NNBk1MjKKUGPopIMUk49wARAYGFgRzzvsxtnY2ARhnKW2HKPS+EQN/2eOHj16RMqUKcOWLVvWAfNBHz9+nBVLmBjsjl9wDvElIpLr8+fPJorqznHjxg1Nnz79m5997fLly9svWbKkExK6NWvWtPzzzz9roAAhTZo0wUuXLu2IlThnZ+d56ouedBEmH2ECEqYMYJUX9+G5hQuCokWLXtCWI1Qan6gh40V5N0aP4OOFCxd2xf/hWFHDFVt4eLgxXhxYVUSkBYybfVj7OcZWdhikfBgT9eDBg2x4A8Rux8++DisbEyZM8MRtzFR0cHDY/+zZs0z4GOeRmzdvvg4X4vny5btRpUqVw+qKn3TLiRMnyuKIFC4AFPchSdu3b58jLhBkxpZYGp+oKWCLE8NS0SAXB1RRIYRlzLFjxw5DJQeu4LgNSkSkftjlwOB13Ma25c/O/Tx69Mh2+vTprm/fvrXAOaHvm+Bmy5btAfqvYXA72nrgHBHuU8M/gXQEKoexYovnEBZycB8WcurWrbsThSvalqSB1iRqgGVKrKJhOxQvCrdv386NPWhchaGCw9bW9pHsGImIkhs3NzdvHEVp3br1qp+tggUHB6fBlhPOpeFNFGN6sNrRrl27AMXX4BgLVtRQPIYLc4wYVFT8q+0fQ1oNx6P27NlTC0kaduSQmOF5ibPtlpaWr2XHlxRalagpdO7ceTGqgrB8jhcHnGFjkkZEpH7YykQRAfpSKbY0v4cL6u3bt9dfsWJF26pVqx7q0aPHfLTkQG9MrH58//XYOr1582be1atXtypQoMDVNm3arGR/NUoIJPuoJsbqLZ5DqD7G8w0LPLJjSyqtTNTQlsPJyWmrtbX1c5xXQ1812TERESU3SMBQ0IXWSV5eXuOxVfmjr7t3714OHE/BBTbeOHHu+FePizdVfB16XyH5K1my5Jn8+fNfU82/gnSNvb399QULFnRDn75atWrt0cbtzm9pZaIGxsbG4RUqVDiG29pSuUFEpEtw5ufSpUuFMTEG258/+hpUg7Zv3345tjlxphjTCuJ7zcbny5YtewLJGtp1YBfl0KFDVXkOmRIKiX3evHlvakOftPhobaIGTNCIiORAQQD6U+E2qvLRQun7r8HB7mHDho3FCEA0F0XCltAtTHwdtjyPHz9eDq080E0eP4dboJRQupCkgVYnakREJAe2OlF9j/YaDRs23PL955GkofcltqDKlClzEp3hE9vEFl+PVTicNUIrj4IFC17B6hqn0lBykiwSNUw0wPI7x5IQEf2+CxcuFEUChtUttOP4/vM4s4aVMD8/v77oAo8qfRQOJOVn4fsmT548uGPHjkvxeJhUg8pSbekqT8qFak4UEWr7ubPE0PlEDVd16NeDPj+9e/eenTNnzruyYyIi0mZoh4RCgoEDB07DKtf3n0fj2xkzZvR7+vRpZvyN82a/8/MwqB0ra3gN9/X17Y9iBL6WJz/onYptcIySRBELzqDJjkkddD5RwzgS/IJjVQ3JGiqI+AtORJQ0K1eubINeaFZWVi+HDx8+5vvPh4SEmGOCzP79+x369+/v26BBg23K+LloWIrHmzJlijua4np4eExkf7XkA8PVMbECvfXwHEPShjOSaIIvOzZV0+lEDecnFOco8PHGjRuboLfK5s2bG6G1h+z4iIi0CZqJogEtbuOi90eJkmLLE/3SUDygrPF+qPhEc9wzZ86URLUpqkfr16+/XRmPTZoNzzuspq5atao1EjTcFxAQ0K5evXo78BzQ9W1wnU7UMBQYw37RlfjWrVt5sA168uTJMmjrsWnTpsYo32UFERFRwqAXGi52ixcvfq5Tp05Lvv88di3QrBZjn7AtirYdv3o8vCZje1TxcebMmZ/+6jUZjc3xuPfv38+ON268hsf3M0h74azjkydPsqByGM2PkaSh2wNW0TBpoHr16gd0PUkDnU7UoFChQpex/YmVtaNHj1bCFiiaL2JMCYYIoxkee/MQEf0aXjfRHgNvjDgn9n17pKCgIBtnZ+d5WP3AmyhWvOJ7TCR23yZaN27cyBffuaNy5codx8/BOEGMolq8eHFnbe46Tz+GrU6cRcPRpS1btjREkobnHp4vaNWC1i2YhiE7TnXQ+UQN/2FLlChxFlVDWKrHGBO8kGBOqLu7+xT0AmrWrNl6jJ2QHSsRkabCShYudFF9+X0Shio8VHZi7jJWuvA1quphhcfFFihadqBQARfcWOlLlSrVR1X8PJIDu184k7Z3796aiu1OjBPD6lrjxo03JbbVizbT+UQNkKwVLVr0Av6jo0UH+vFg9NTdu3dz4jAiynxx4FVXmuMRESnTvn37HLGqYW5uHoLX0W8/h+pPzPDEmSFsRWG1Q9VJEx5/0KBBU69fv26P4oZ8+fLdwDxHvobrho8fP6ZCZTHOI2JlDffh4gC9+LCimtya3SeLRE0B1Z54kbG0tHyNKzDch2VU/OEvOBHRf+Ecmaur63TcRpXn99uMJ06cKDtv3jxnrHCgIi++OZ7fypIly5MrV64UVHycPXv2+wn9XpxnmzVrlku1atUO4udjtaVy5cpHEvr9pLlwHAn/LU+dOlUaSRkKBrByioRcdmwyJKtEDbB6hj1vVH3ilxvnHAoXLnxJdlxERJoI59GQTOXKletOv379Znz7OZwxw7k1nC1bt25d89y5c99OzGNjwgASrKTGhotvtAJp1KjRZsSBYgMUMiT18UgzYOEEM16Dg4PTYEYs/tsm5gJA1yS7RE0Bh1BxGDE5dTcmIkqMly9fWo0ZM2Y4biNhMzY2Dld8DtNesOWJfmkYnp6Q4gFVwFYY+quhZcfy5cvb4yydslqCkDxo/YKpFzimlCZNmmDZ8ciUbBM1ZOxM0oiIfg5NZbGqga0nNJz99nM45D19+nRXjHNCSw5ZBVk4r9atW7cFKC6YOXNmH3t7++soEJMRCylXcqnqjE+yTdSIiOjnzp49WwKtjXD2zNvb2+37z2FrCnM4sR0qe9oLzrb17dvXDwViI0eOHIXtz5IlS56RGRORsjBRIyKif0GjUWxnouIOW4kYhK743OvXry3R2ujhw4d2GOeEQ9+ym47i56OROWJGbIh5w4YNTZM6CJ5IkzBRiwfOYRw8eLDa98v+RES6CitpqOZE0ZViZBSgn9WIESNGHzt2rAK2OzGdAAUBMmNVQBwYWYUmqagGxYoftkKTU78tbXHt2rX82CpH1a/sWLQBE7VfQGNclKXjgCoO1GJpnb/0RKTLMPAak1xwGytmirNnWF3DGB/MSsboJjQRT5kyZZjcaP8NxQ5owXTkyJHKW7dudSpTpsxJJJNsv6QZ0HMPE4Lc3Ny80XYDvfk4VSJ+TNR+Ak8ovEghScOqGn75cajWxcVlFuaMyY6PiEgVRo8ePQLjoFBN2bZt2xW4D0kahq1jEgAqKtFkVlMPeqMH15o1a1piYDdW1NBWpFKlSkeTW5NUTYPqTUyuwErn5cuXC+E+JNFIqDUt4dc0TNR+Ak8q/MKjogiJGkZN+fn59X3//n1adMRGvx7ZMRIRKdOdO3dy4XUOSQ1aIyjOniFxQ/uLFy9eZEQil9h+aeqGJuYYNYSkAHGjuMDOzu6h7LiSK7yHYjUWfUsfPXpki/vw/ooWHNi5YqL2a0zUfgJPHMysQwsPnMnACxWSNDRXfPPmTXqssPEXn4h0CfqRhYeHG+P8WenSpU/hPuwu4HVvz549tbp06bIIzWUNDAy+KOPnoTAByZTiYySBytixQKLp5OS0FY140dh8wYIF3TBVgUdX1A8Na5H8Y3Xz1atXGXAf+qLhuYSjRWyTFT8mar+A1bQOHTosw4FHJG3379/Pjux//fr1zVAGvmzZsg7fVkMREWmrbdu2Ndi5c2ddnElDwqS4f9OmTY3xJoutUGdn53mYl6ysn4nzcPPnz++h+BjVmso6WoJkAAkn5oHOnTu3JyYgtGrVarUyHpsSBon4hAkTPBcvXtwZCRvuwyoaznujQtfKyuql7Bi1ARO1eOAKrFatWnuwbItf+kuXLhVG5RNmkKEJJM6w4cCq7DiJiJIKr2k40oHbSNJQ7YnbaMHRs2fPubhoxeqH7H5piYUtT6wS4kwUEgMkm9wJUQ/sQqEoZdWqVa3x/MJ9SNKwgor/FtzuTDgmagmAcxrYBvD39+8+ePDgyShNx6BivIgtWrSoS5EiRS7ySUdE2goNbW/dupUH1ZzYPVDcf/r06VKopBwyZMik6tWrH1D2z8UWKs6TKT5WRasPTE7A6zYq99FyhIma6qEP37lz54rv2rWrjiJJQ0+7UaNGjcSqLAs7EoeJWiIgWcMBW5xZwxPQ0dFxH64YmKQRkbZ6/vy59cSJEz1wG8Ovv02WMIrJxsYmqFSpUqdV8bMxaBvHSFTx2N/q2LHjUmx9li9f/i9V/yz6uriBBHnAgAE+U6dOHYQVWiRpTZs23SA7Nm3ERC2RihYtegFXn7jyRHNFXp0RkTbDlueHDx9SN2nSZCOOeXz/eXT8lxGXMuEIC5M09cJ2eefOnRejnUvBggWvVKtW7aDsmLQVE7UkQGk6rg6wJSA7FiKipEJvNPREw64AVj5kx0O6BYUhOOOorCrh5IqJWhIxSSMibYYmtjhoj/NEOMOFweayYyLdoykjxrQZEzUiomQIvcVQLID2Q0jUZMdDRD/GRE2FcMWKPkHoS6To8E1EJBt6WqFzP27jzC3OEcmOibQLGsCbm5uHcI6q6jFRUxFsJ5w/f77Y2rVrW6BDti4cyCUi3YBRPugSX7FixcDmzZuvkx0PaRdU6s6aNcsFz5+GDRtuYbKmWkzUVOT27du5J02aNAQDZ/fu3VsT40v4hCYi2a5du5Z/zpw5vfBahIkDXO2nxLhw4UJRtHPBxAr8QaEAFiNkx6XLmKipABr8HTx4sBoSNMzNwxPb3d19CgYad+3adSHnzRGRLJgwEBkZaeji4jILzbplx0PaAbtEJ0+eLIM+okePHq2E9zkMWMcc2EqVKh1V5mgx+jcmaiqARAzjpfCkRuk7kjXMCcV2w6dPn8zwAmliYvJZdpxElLxs2LChKS4gMQgbr0ey4yHtcfbs2RKYWoFxXJjMg/tQKezh4TERc1Vlx6fLmKipSObMmZ+iyzeWhQMCAtp9/vzZ5OXLl1YYY4InOZ7wKDKQHScRJQ94DcLKPm6PHTt2mKWl5WvZMeEC9tsRUjdu3MiXN2/emzJjon+LiorSx6IDplRgfifuw7Z58eLFz61fv76Zra3tI9kx6jomaiqEAbS+vr79URmzdOnSjm/evEmPDuAjR44chZW1vn37+llZWb2UHScR6b7JkycPRmKELvHdu3f3lx0PaT50LdixY0c9NK0NDg5Og/tQIezg4LDfz8+vL5M09WCipmLY4kRRAZaIMScU1TLY2x8/frwXypu/n61HRKRsjx8/zjplyhR33EYBATvFU3xwJm3jxo1NsLWpSNKw+NCyZcs1uI9JmvowUVMDvCg6OzvPy5AhwyskaJcuXSqM+zCQWHZsRKT73NzcvLGK36pVq9UYli07HgX0mmzRosVaDEzHcREM75YdE/0f3rNMTU1DcRtJGlbWcMYaTZJlx5acMFFTE6yaNWrUaDMOXaLRZJ06dXbhCc/VNCJSpcDAwIo4S4TVfbRVkB3Pt7DSh12GNm3arET7Itnx0P+hbYujo+M+rMTivw9aTHXq1GkJClFkx5bcMFFTI8wHrVWr1h4cwkQhAQYhy46JiHQXDoL36dNnJraxvLy8xtvZ2T2UHdO3wsLCUj579ixTaGioqexY6L/QwaBx48ab7ty5k8vGxiaIfUDlYKKmZrhKYQEBEakDGttevHixCCorBw0aNFV2PKR98J7FrU65mKgREemgt2/fWih6pWGeJ1fwibQTEzUiIlWLvmc0rbL9erdjEQ2+3mEoSk+8PPGvIXm99IVQyQinoUOHjkNLILRSwPlYVfwMIlI9JmoaCk1xcS4gVapUH7nsTESJgbF1/v7+3VFdjrZAsuP5GZydQ+UnztLJjiW5wf/vJ06cKFuoUKHL6PUpOx76OSZqGggvXvgF6t+/v2++fPluoFElStdlx0VE2mHAgAE+SH4w1xMNbmXH8zNY8UNTVVR/4uKU/d3UA0na1KlTB82bN8+5R48e8/F8QbGb7Ljox5ioaSAMb1fMVDt37lxxfLxmzZqW6dOnfyM7NiLSbKtWrWp9+PDhKihawgBt2fH8Cl7fUPmJggeM2MuUKdMz2THpusjISENUACNRw8c4v4j+de3atQtgVadmYqKmgZ4/f26tuLrE3/v373fAOZMlS5Z0wjI1f5mI6EfQ5sLT03MCbqO5NpqUSg7ppz5+/Jjq4MGD1cqVK3ccK2toBI4WEKgylB2bLsJOzZMnT7KMGjVq5IoVK9rivhQpUkTjDwpPkDBjPJTsOOm/mKhpoCJFilxcuHBhVzTGPXbsWIXw8HBjXHHiigfjqKpXr34AzStlx0lEmgXJ2cOHD+3Qq7Fz586LZcfzK9u3b69/7969HJUrVz6Ci9NFixZ1QdxsX6R82Oq8du1afhyjwVgoJGVIiDHacODAgdPw3sIkTXMxUdNA+AUqXbr0KfxSjRs3buiuXbvq4Bfr+vXr9u7u7lMGDx48GWNXFKM9iIiQ9GAbC68fvr6+/bFSIjumn3n69Gnm6dOnu2KrEwkb7jtz5kxJNFdt3br1Ktnx6RqsVmKywL59+xzxXoL7kKRNmDDBs379+tt54a/ZmKhpKGxv4uoS4ztwpYNzJzgcfOPGjXwjR44chW2Drl27LuQvGBEBVkbwJtyhQ4dlFStWDJQdz89EREQYYTD8rVu38iBR6NWr1xzF57AiiB2F/PnzX5MZoy45evRoJcx6PX/+fDEcpcF9eG+ZMWNGvzJlypxkAYfmY6KmwXBlnDNnzrvoLo6zJnhxwzkDVEj5+fn1xTiq3Llz35YdJxHJhXOsW7ZsaYg2C0h+ZMfzM9iCQ2HU8uXL2/fr128Gzt5++3kUFGCu5LZt2xpkzZr1saw4dQX+/x4zZsxwrFbivQP3VatW7SDeU/LmzXtTdnyUMEzUtAB6qSExy5gx4wu8CONjLGNny5btgezYiEgurJKgvQJu41yrplZO4qzt1q1bnfAaVrdu3Z2oPERLCEUCAVevXi3g5OS0tWXLlmvmzp3bs0CBAldZPJV02P5eunRpR6ywYru5Tp06u1DtiQUA2bFRwjFR0yKY1YdkDdsbOMthaGgYKTsmIpILW1hXrlwpmCtXrjvovSg7nu8hEXv06JHt+vXrmwUEBLRDsjBkyJBJP+rbhcQMK4NYbUN/r759+/rh6y0sLN7KiF0XoJJ29erVrVauXNnGxcVlFpM07cNETYtgVl+3bt0W4IVPkw8KE5F6YKsQW1u4jQICTWtaGhQUZIMD7Kg0RAsIJF8ohPpVT0g06MXWHP49WP05efJkGaywVahQ4Zg6Y9clJUuWPFOsWLHzPI+mnZioaRmcW2OfISIC9Ex7//59WlTuYTtRdjzfe/XqVYa1a9e2KFq06AVsaRYuXPhSQpJJnJ/CQPndu3fXRiHV3bt3czJRSzq8ZzBJ015M1IiItNDZs2dLoAm2kZFRBNpyyI7nR/LkyXMLK2M4spHYPl3op4ZWHVWrVj2kyY17iVSNiRoRkZbB8Yc+ffrMRFUf5nkiIZId04/guEaOHDnuJfX7cQ7X1tb2kTJjItI2TNR0EPqtobwdY1latWq1mh2niXTLsmXLOpw4caIsVqpQPSk7HlI/VPueOnWqNHpr1qtXbweeC7JjItVgoqZjMHAXnb4xPgZbIhjNggO8GTJkeCU7NiL6fSEhIeaK5AwNsVOnTv1BdkykXlhJxcSa0aNHj8DUATS09fDwmMjngm5ioqZjUAWGHmvBwcFp8LGPj88ArKyhtYem9lciooRDleezZ88yYZg5ZjTKjofUC5Md0DAYSfrNmzfz4r758+f3aNCgwTY8J2THR8rHRE3HpEmTJhjNL9GnCOXwr1+/tlywYEE3lMmj3xJX1oi01507d3Lh9xjteXARxgrw5AWjA9H8HHNSUVGL+3C0Be1LOMlBdzFR0zGYWtCxY8elWD1zdnae9+TJkyzYKtmwYUNT3MbZFgzjlR0nESUeGtqiwz/6KZYuXfqU7Hh+F16Tvh0jhXYcfH36sXfv3qXDLNSFCxd2xW3ch61OFJWgQTDPqOkuJmo6CJVS6OaNLuAY3H7v3r0cOLsWGBhYEb2WkLRx6DGRdkGB0M6dO+vizVnR5Fbb4XUJw9kVH2NbT2Y8mgrHV8aOHTsMjYCRqGMlFRflmNyAsWGorpUdI6kOEzUdhV/kKlWqHF60aFEXHDxGdRBeFHGmoUOHDsvwC1+qVKnTsuMkovghgcE5U9weNWrUSGtr6+eyYyL1wI4IkjEcYUGlJ+5Dj7nBgwdPxkoaG9nqPiZqOq5y5cpH0Axz3LhxQ3fs2FEPCRzOt+Csg+zYiChhpk2bNhArT/b29tcxr1F2PMpibm4e0qVLl0WKj3HGVmY8mggVnp8/fzZBFT9u4zmAiRRt2rRZyTOKyQMTtWSgTJkyJydPnjw4Xbp079B7CVdnlSpVOio7LiKKH1rsTJgwwRO3cYgcRxtkx6QslpaWr3HmSnYcmgzJ69ChQ8eFhoaaooAAK2k42iI7LlIfJmrJRL58+W4gWXv06JFtkSJFLnK5nEg7uLu7T/nw4UPqJk2abKxVq9Ye2fGQ+uXMmfMuknUcX8mVK9cd2fGQejFRS0ZQFcTKICLtcfz48XIrVqxoi8PiU6dOHSQ7HpIDx1WQrMmOg+RgokZEpIFwHgntODDXE6tqbFtBlDwxUSMiUrto8Wj7eIeBQel89IT44YHwK1euFDx9+nQptGFAewY0slZ8ziB/6zujepSZayYEjzAQ6TgmavQfGEP19OnTzMWKFTsvOxYi3RQlngcuKzUjUJSK7ytRoT179uze395nXKfwEY/uZfzN9JioabsHDx5kw+ppjhw57smOhTQTEzX6F4ydQiuAw4cPV0H/NcyPkx0TEZEuwqrpxIkTPTBpAPM6M2fO/FR2TKR5mKjRP8LCwlLOmzfP2d/fvzteOFxdXadjy6V9+/bL9fX1o2THR0SkKy5fvlzIw8Nj4oEDB6qjmhOvs2vWrGnJecz0PSZq9I/g4OA0V69eLYC/cYAZo6fQs+fTp09mPXr0mK9L/ZuI1CpFjoiBgeFOAxPwpbVr1969Z8+eWmhsO3PmzD4qj43UDq+zSMyQrGHbE/ddu3Yt/4sXLzIyUaPvMVGjf6B1BxpqogM2ruwUDRbRIBfz5TA3lJ3DiVQHc3iRpKE59R+xZMejalhJwhktxcfZsmV7oMsXhPj3nj17tkTHjh2XKmac4t9buHDhS0uWLOlUsGDBK7JjJM3DRI3+BVdzOKOWPn36N+gYji3Q9+/fp8V8QZxfw3YoPic7TiJdg6MHaMOB2xjAja79smNStSdPnmTJkyfPLcXHN27cyJc3b96bMmNSFexMbN261WngwIHTMG0C95mYmHzGCiqa2erqv5t+HxM1+o+0adO+xxuFjY1NkK+vb39MM0BndEw2QEXokCFDJrH5IpFy4ffr/v372QsUKHAVRw1kx0PKg7O+AQEB7dC0GNubuC916tQfmjVrth6vp7lz574tO0bSXEzU6IeMjY3DcUbG2tr6OZK269ev22PZftGiRV0wwgRn12THSKQrsLKERA23cS6NI950C86kYYcCbY9w/he98bp167YAvfGyZs36WHZ8pNmYqNFPIVlr3rz5OpyXwZYMXmxwhqJNmzYrZcdGpEvc3Ny8sTXWqlWr1VWrVj0kOx51QZJy586dXIqPbW1tH8mMR1VKlChxtmbNmnvv3r2bMyIiwgitj3AhjFU12bGR5mOiRr+Eg6516tTZpdgOXbZsWQeeUSNSnsDAwIrr1q1rjvNK6KklOx51wsphcjhGYWZm9mnMmDHDcXSkWrVqBzt37rxYdkykPZioUYKUK1fu+I4dO+rJjoNIl0RFRen36dNnJrbDsMpiZ2f3UHZMpBpIxFHZiQHrsmMh7cJEjYhIkrlz5/a8ePFiEWz5oRpQdjykWkzSKCmYqBERSYB2N4peaT4+PgNMTU1DJYdERBqIiRoRkQRoJP369WtLBweH/Y0bN94kOx4i0kxM1Eipbt++nRuHo+vVq7fDysrqpex4iDQRhnFjpi4O02MaiOx46PcsXry4c6ZMmZ7VqlVrj+xYSPcwUSOlQbdt9IJCrzUnJ6et8+fP78G5dUT/hQKCL1++GGDSR6FChS7LjoeS5uPHj6m8vb3dMLkFTWtRLFC2bNkTenp6MbJjI93BRI2UAtVrqApdtWpVawwZ3rx5cyOcwcE4qmLFip3nIVqir/A7cvjw4SpYcR4xYsRo2fFQ4qFKF02KsRqKC1J8jB5p+BgNi7mbQMrERI2UAleQmFhQsmTJM3/99Vd5TDE4cuRIZYzCGT169IgaNWr8iWHvsuMkkunz588mnp6eE3B73LhxQ9GfUHJIlEhIym7evJl30qRJQ9avX98MjYrx+pclS5Yn5cuX/4uvc6RsTNRIKbBiVqFChWPY+kRjxz///LNGeHi4MVoPeHh4TAwODk6DA9PoJSQ7ViJZxo8f7/Xw4UO74sWLn+vSpcsi2fHI9urVqwzfjqPDcHKMrZMZU3wwoWXo0KHj9u3b5xgaGmqK+9D/DrHXr19/O8ZDyY6RdAsTNVIaHIzGihqW/wcNGjR127ZtDbAlijmhSNbCwsJStmvXLoBXnJQc3bt3LweGcmP1Be04eBzg6xkvnOtSfIzXCU1O1K5du5YfUwVwAYpdA9yHnQRMbMFrHya5yI6RdA8TNVIqvPnghWvt2rUtOnXqtATncZCs4TxHr1695uAKFAepZcdJpG6Y54mLlQ4dOiyrVKnSUdnxUOIcOHCgeosWLdbi7C22P3FfqVKlTq9cubINXvNkx0e6i4kaqQRWzfACho7r6L6OrU99ff0obPvIjo1I3fbv3++AAhtzc/MQbJHJjkdTYAUqX758NxQfa/JqOy42FbdTpkwZhv53mM3KJI1UjYkaqRSq2iwtLV+jMgqrCNjakB0TkTqhDceAAQN8cBtNbtFvS3JIGgMH8HE0QnYcCYGVUFxwItFGkobZrPb29tdlx0W6j4kaqRTG4qDys3Dhwpdy5MhxL3369G9kx0SkTn5+fn3R4DZnzpx3+/fv7ys7Hko6HNvAhSd6pWXPnv2+7HgoeWCiRiqXOnXqDzVr1twrOw4idXv58qUV2tPgtq+vb39jY+Nw2TFR0qEQpHXr1qtkx0HJCxM1IiIVwfbY+/fv0+JCBWPVZMdDRNqHiRoRkQqcO3euOGZA4oD8jBkz+smOh4i0ExM10hgYPfXixYuMaBiJ6jjZ8RAlFdo34DwantOY55k3b96bsmOin0PBx+vXry3xumNmZvZJdjxE32KiRhrjwoULRVHujsaR6NqOQ7uyYyJKCjRADQwMrJgxY8YX2P6UHQ/9HJJqTBlYunRpR1RztmnTZiWKoGTHRaTARI00AgYaoyEo5oNiYDWaSuLjDBkyvJIdG1FihISEmCuSM4xUQzGN7Jjox5CkBQQEtMPcToyGwna1hYXFWycnp62YtCI7PiJgokYaATP/Tp48WQZbRaiUQ5PcZ8+eZZo1a5YLt0FJm4wdO3YYnrvlypU73r59++Wy46EfwyxijLvD+cGgoCAb3PfgwYNsd+7cyYVpKkzUSFMwUSONgO3OdevWNe/YsePSN2/epEdjSYyfunXrVh7MDOXKGmkDvMmjDQdGqWGeJ9o5yI6J/gszRrGKNnPmzD6oysV9ip6PeA1iGxXSJEzUSCPg6rVOnTq7li9f3h5d3LEVigO+WGVr0KDBNn9//+4FChS4ykHWpMlQQICVmm7dui0oXbr0KdnxaLr79+9nRyNsxcc3btzIp+rCC6zYT5kyxX3OnDm9Pn36ZIZkOk2aNMGYRYzJKdyqJk3DRI00BpIw9JvCisQfsXBeJDIy0vD06dOlcKU7fvx4r/Lly//Fq13SRNu3b6+/c+fOunijHzNmzHDZ8dB/ITHESidG2oWFhaXEfVZWVi9dXFxmDRo0aKqJicln2TESfY+JGmkUDG6vXbv2bpxLw1mfPXv21MK5NaysYRQPxvBg0LvsOIm+FRERYYTiF9weNWrUSGtr6+eyY6L/2rRpU+PZs2f3xmo9PsZA+CFDhkzCWUK89siOj+hHmKiRRqpQocIxb29vN8wGXbFiRVu88VWpUuVwunTp3smOjeh706ZNG4jzlBjSjdUZ2fFoC5w9RSsTxcc2NjZBqvx5WJEvVKjQ5YsXLxbB1vSwYcPG1q1bdyfPEpImY6JGGit//vzX8AZoZ2f3ENuinTt3XswKUNI0aNI8YcIET9zG89XQ0DBSdkzaAs2t1VkZW6pUqdM4QrF+/fpmnTp1WoLh6kzSSNMxUSONhvMj2ALFbb6gkiZyd3ef8uHDh9SNGzfehG172fHQzymOVuAsLAuTSFswUSONxwSNNNXx48fLoWEqClzQ7kF2PJQwTNJImzBRIyJKAhS5oJUMutsPHjx4cu7cuW/LjomIdA8TNSKiJFi4cGHXU6dOlc6SJcsTVA7KjoeIdBMTNdIZixYt6pI1a9bHNWrU+FN2LKTbcCZtxIgRo3F76tSpg8zMzD7Jjim5u337du5jx45VaNKkyUY2rSVdwkSNdMKWLVsaenp6TsAb5sSJEz1atGixVnZMpLuQpD1//twabWT4XJPv+vXr9ljVPHr0aKUnT55kQdsN2TERKQsTNdJ6aIbr5eU1HoPdMR7G1dV1OkbDtG3bdoWRkVGE7PhItyApQNNUVBDOmjXLhcUucmG+qrOz8zwkafgYSXS2bNketGvXLkB2bETKwESNtB7OCBUvXvwcxsN8/vzZ5NmzZ5mwuhYSEmKOXkncBiFlwoUARpv17t17dpEiRS7Kjie5wnSBs2fPlujatevCq1evFsB96GGH/ouYCyw7PiJlYaJGWi9z5sxPMb8PXc4XL17c+f3792nRhHTkyJGjcLtPnz4zLSws3sqOk7Tfxo0bm2CsGSZkYFSU7Hi0HS6mVq9e3UrxMbaRMSA9vu8LDQ013bZtW4OhQ4eOu3v3bk7cZ2pqGuro6LgP/12KFi16QYVhE6kVEzXSCRg1NXr06BEoJkA/KyRqSNKmTJni/uDBg2wYko2ETnacpL0wxBuDu3EbTZgtLS1fy45J271+/dqyR48e8xUfV65c+Uh8iRoKOTB2CiPmHj58aIf7cDa1WbNm63FODfM7VR03kToxUSOdgXE0OKuC1TNcVWMr9OPHj6mWL1/e/u3btxYY84NZjLLjJO00efLkwXhOYVvt2+SC1Ofdu3fpcC4QZwRxMYYedlhJwxEH9LLDhRrPDJKuYaJGOgUv2jhEjK0pNzc3bxw0joqK0r98+XIhFBswUaOkQCUhEjXcnjlzZh8DA4MvsmNKjsLDw41v3ryZFxW3SNJwX9++ff1QQIDffdnxEakCEzXSOajGc3Jy2ortEBcXl1lBQUE248aNG4ptFdmxkXbClicqiVu2bLmmatWqh2THoyuyZ89+X5FwJYS1tfVzFArhd/r8+fPF0IYDxR2qjJFINiZqpLMcHBz24yzLlStXCrZq1Wq17HhIOwUGBlZcu3ZtCxMTk8+c5ykfqjqRoKEQoX79+ttlx0OkakzUSKeVLl36FP7IjoO0E7bNUTWMVR+s5NjZ2T2UHRMJwVVNSk6YqBER/cTcuXN7Xrx4sYitre0jnHmUHQ8RJT9M1IiIfgCVwn/Ewm306eNhdSKSgYkaEdEP4BwU+nxVr179QOPGjTfJjie5wHYzCoJkx0GkKZioUbKHXmtouYDRU2iYyca4hJFE/v7+3dGGA6tpsuNJDtDIdsGCBd327t1bMyAgoB0bChN9xUSNkjWMosGbAhK1p0+fZr59+3bu8ePHe2EEDRtnJl8oIMAsyQEDBvgUKlTosux4dB361OF3EI1s0QZl4MCB0yZOnOiRKVOmZ7JjI5KNiRolayjxP3nyZBk00MTHu3fvro0re2x71ahR4082Nk1+MHvy0KFDVa2srF5iXqzseHQZqmkxqxOj3tACBb+PuEA6ceJEWYx+Y6JGxESNkjnMCMXYKWx7HjhwoDpWUZC4eXh4TMSWaMOGDbcYGRlFyI6T1OPz588m+G+P22iSnDZt2veSQ9JpSNJw3ACD7rGShvuQIONCqXDhwpdkx0ekCZioUbKGFTP0WcP8QIyiwfkYHGZGk1zMDoyMjDRs3rz5OkNDw0jZsZLqYdsbg76LFSt2vkuXLotkx6PLkKRh0gPGu+H3DPdhUsGKFSvalixZ8gx/54i+YqJGyV6KFCmic+XKdWfdunXNmzVrtn7//v0OWFnD1kvXrl0XRkdHp2jduvUqVqLpNgxcnzp16iBsvfn6+vbH80J2TLoIv08XLlwoitVqnE379nOrVq1qXaZMmZOyYiPSREzUiP6WKlWqjzt37qyLA+S4qkcfrbCwsJSdO3debG5uHoI3FtkxkuqgoS3+e7dv3355pUqVjsqOR1dhtRq/Uyje+f5z3Gom+i8makTfwCoKtr8w/HnOnDm9cHatVKlSp+3t7a/Ljo1UB6uomzZtaoxkHdWGsuPRZSgQKF++/F/Xrl3Lj+3NihUrBubMmfMuPsdEjei/mKgRfQdv1i4uLrPSpUv37uDBg9X69es3I0+ePLdkx0WqgW1uV1fX6biNQ+ysNFQt9Efz8vIaj2KdNGnSBGMFG0cPZMdFpKmYqBH9AN5AOnTosAzbnahCkx0PqY6fn19fHGjHqg6SBtnxJAdZs2Z9jJYcKOZhY1uiX2OiRvQTZmZmn/BHdhykOi9fvrQaPXr0CNxGAYGxsXG47JiSCxwvkB0DkTZgokZEyRa24N6/f58WzY3r1au3Q3Y8RETfY6JGRMnSuXPnii9evLgzGhpj+1N2PEREP8JEjeg3PXr0yBYtB9D/CZMOZMdD8cPoIpxHQ08v/J03b96bsmPSFRj/FBERYYRqTvaiI/p9TNSIfgPmgk6bNm3g9u3b67dq1Wr1oEGDprLFgOZbvnx5+6NHj1bKmDHjC2x/yo5HFyDp3bBhQ1O0t0HfQRQLsHkt0e9jokb0G9Bza+HChV3RamDGjBn9cDh95syZfTgfVHNh8Lenp+cE3J48efJgVPjKjknbIUmbPXt277Fjxw578eJFRvRHGzNmzPDp06e75s6d+7bs+Ii0GRM1ot+AFQMfH58BuI0EYMGCBd1u3ryZFytsWFWQHB79AJIJNDIuW7bsCUwhkB2PtgsPDzfGBYu3t7cbLlgU99vZ2T1EL0KZsRHpAiZqpDWGDh06DtsqsuP4FZx9OnLkSOXUqVN/SMjX441NZguQtm3brli5cmUbVf4MNJD90bggGTAIXDHHE39jrqfsmH6kRIkSZ1HsIDuOpMKQdayw4Q8+xnGAd+/epfvR1926dSuP4mOsvnE1mujfmKiR1nFyckKPM9lh/JZTp04haZAdxj9at26tksfduHGjSh43qfr37++LFaCuXbsuLF269CnZ8cRHVf9d1GnLlp+PyMVQ9oIFC15RfHzjxo18LOwg+jcmaqR1fH19RbZs2WSH8Vt69OihUYnaypUrVfK4lpaWKnncpNi7d2/NHTt21MNqJ85PyY4nIVT130WdbG1tcSxAdhhEWouJGhHpPLSLwMxW3P4jlo2NTZDsmIiIEoKJGhHpPFQfosjD3t7+ep8+fWbKjoe+srW1fYQ+hIqPmUAT/RcTNSLSaWgXoShCQc87tI6QHRN9pa+vH4UB7bLjINJkTNSISKe5u7tPQWPiRo0aba5du/Zu2fEQESUGEzUi0lnHjx8vFxAQ0M7Y2DgczW1lx0NElFhM1IhIJynmeKK3HVbV2CGfiLQREzUiyZBQcHi18i1atKjLqVOnSmfJkuWJh4fHRNnxEBElBRM1IokwG7Rbt24L3NzcvOvWrbtTdjy6AmfShg8fPga3MRxc5vQHIqLfwUSNSKLmzZuvO3v2bAmMNsK8xMaNG2/CeSrZcWm7kSNHjnr+/Ll1hQoVjrVs2XKN7HiIiJKKiRqRRBcvXiyCvx8+fGiH7bk3b96k79ChwzIOdE+669ev28+aNctF0+d5EhElBBM1Iok6d+68eNWqVa0xnB3J2ujRo0e8fv3aEluhqVKl+ig7Pm3k6uo6HcO+e/XqNQfDzWXHQ0T0O5ioEUmEcUaoRkTrCCRoOLM2derUQdi2w/adtbX1c9kxaps9e/bUSpcu3TskvbJjoV979epVBlTmKj7Gc5/TCYj+jYkakURp0qQJ7t2792wLC4u3w4YNG4sEDatrixcv7hwUFGQzY8aMfhizIztObYDqWcVtDF23tLR8LTMeih+e6ytXrmyj+HjEiBGjmagR/RsTNSLJUJHYpUuXRTiXNmjQoKmPHz/OGh4ebrx161Yn/D179uze2bNnvy87Tk334MGDbPi7QIECV52dnedJDoeISCmYqJHSocEorpRxMB7nrgIDAyueP3++2K1bt/JgxSgkJMQ8LCwsZVIfPzZpUWa4Uv3qHBr+f9y9e3ftHDly3FN1HHp6eqp8+EzqPNB/9erVAroyz1PF/13UKW1CngP58uW7oY5giDRV8eLFz6ETwLf3MVEjpUFigXNW586dK37o0KGqSDKuX79eKH369PpWVlYi9m9ha2srjIyMMIxZdrikQ06ePCkeP/4627tZs2aSoyFdEx0dLSIjI0XsBaYIDg4Wsa9zIvaiU4SGhsZ93sTE5HPhwoUv2dnZPTQwMPgiOVzSYtmyZXvw/X1M1EgpoqKi9Pft2+e4du3aFvv373cIDw/PUqJECf0GDRqI3LlzxyVoGTJkwJksYWxsLAwNDWWHTDri7du3oly5cnHJf+zzUCxYsEB2SKRj8LyKiIjAmbq4JO3Zs2fizp074tKlS+LEiRPixYsXUbGvb69q1Kjxp5OT09bYC9OXsmMm3cFEjX7bp0+fzMaOHTts/fr1zWKvNrPVrl3boFGjRiJPnjzCxsZGxF5hyg6RdJiFhYU4ffq0wEXBxYsXZYdDOggXASYmJnF/cMFpb28vqlatKt69e4ceiOLgwYMoiqiLkWXYTfDy8hqfP3/+a7LjJt3Ad1D6LWgn0aNHj/loiWBnZ5dy1qxZcasbZmZmIkWKFPE/AJESpE6dOi5hI1IXJG+WlpZxfwoUKCDq16+fwtvb22rDhg0tcE4yICCgHQpbZMdJ2o+JGiUJzqPhxahv375+x48fr1S2bFl9bDnhapOIKDlJmTIlCiGEj48PjnoYzpkzp2jlypWPoPWIo6PjvtikLkp2jKS9mKhRoimSNHTPv3LlShVnZ2c9Dw8PYWpqKjs0IiJpsJMwYMAAkSlTJuHt7W3Rpk2blQsXLuxav3797SwyoKRiokaJhkas06ZNG3jp0qWqLi4uej179ow7u0FElNyhqr1du3ZxuwtDhgxJO2rUqJGYlFGpUqWjmD8rOz7SPkzUKNEw6HrLli0tmzZtaoQXJCZpRET/VqtWLfH+/fsUw4cPLzBx4kQPVIWywICSgokaJcqOHTvqzZ8/37lYsWKmvXr1ijtIS0RE/4VK5KdPnxp6e3tXRXGBp6fnBEwgkR0XaRcmapRgmCjQp0+fmSYmJmlcXV3jJgToUOd0IiKlwm5DixYtxIULF1L6+/t3b9So0ebSpUufkh0XaRcmapRgCxYs6IZ5is7OzqJy5cqywyEiLRLzZrfoU7WtWPk4SsTNktIzENk7rREHpzmItIm+3osUN2Y1FDWG/SVC/h5MpZe6kpiwf6PomVtzmmnjQjZLlixxydqZM2cs586d27NEiRJnWQVKicFEjRIE/dJWrFjRNl26dKJ79+6ywyEiLaOXvpYYM7WNONomQDyKis2uYr6IB8vdxMi6B4VPjXQiMblaxPXZYsD44/8kaSJFGlF52HTRTYOStG+VLVs27s/GjRubeXh4TMyTJ88t2TGR9mCiRgly4MCB6o8ePbLFxIFcuXLJDoeItI6esKg5Wni3OypaL3sgvsTlag9FgNsIUffQDFHLIoGpWvhVMbP/JHHy0z9ZmkhbZbiY3iWXxr6h4Syvg4ODOHTokDnadUyaNGmI7JhIe2jq85o0yJcvXwwOHz5c5cOHD2m7desmOxwi0lZ66YTjKG/R/khLseT+FxET+7+oxyvFoOH1RMmZtUX6eHO1MHHJt6+YcjpU/JOmpasmRk7rLHJo+LtZlSpV4lp2oKhg9OjRI4yNjcNlx0TaQcOf2qQJnj17lunOnTu5smfPboDu20RESaWXtrr4Y1oncbj5QnEvblktSjxePUgMq1dSzK5r+cst0LALPqLftPPi8z9ZmoVw+GOa6JBdXx2h/xY0wcWoqU2bNtlcunSpcKlSpU7Ljom0AxM1itf9+/ezo8ltuXLl9DDfjogo6fREmqojxPQuh0Qz/zsiEklX1BOx1n2YqFdqjqif4Sep2uezwrufj7gY9v8tz/Q1Rwnv9nZCG16VMPu4fPnySNT0AgMDKzJRo4RiokbxQiHBu3fv0tnb28sOhYh0gV5qUXn4dNH1YBMx73Zk3DZm1NN1YvDQuqL0PCdh9Z9cLVScmtJPzLgc9v8tT0sUJ7QVtinUG/rvwI4EKkFv3ryZV3YspD2YqFG83r59a4EeanZ2drJDISIdoWdeSQz16SYONJ4rbkXEpWri2YYhwqtuGeHfKOO/tkA/nZgo+s+6JsL/ydIyiDpjp4pWWbQoS4tla2sbl6ihzZHsWEh7MFGjeH3+/NkkPDzcGK05iIiUxbzCUOHT/aBoNPuG+JqrBYmNHp6ibtkFoon130nYx7/E+AFzxY3/Z2kiY/1xYmqLzEK70jQhLCws4v5+//59WrmRkDZhokbxioiIMIqMjDQ0NTWVHQoR6ZRUoryXj+i530n43YiI29aMfr5ZeHnUFeUXNRPWeiHi6Nj+Yv7NiP9veVo3FOMnNxM22palCfHPXOTQ0FC+mFKCMVGjeMXExOjhDw7DEhEplVlZ4eHbW+xz8hXX4lbNosXzrUPF4PXlha/VdOG68O+CA0hhLRqNnyAaW2vna5GiGCsqKkob6h9IQzBRIyIiqUzLDBG+LvtE/elXvp5Di34htns2F/dNboq7/2Rp+sKm6SQxsbG11m15Ev0OJmpERCSZiSjl7iv6/llPeP9d2Rn95qq4/M1X6GdqLqaM/1FFKJFuY6JGRETymZQQg3z7iT/rTvmmV9rf9LOIFlPHino/67FGpMOYqBERkUZIWayH6FVttui166P4f6qmL7K0nCLG1vn11AIiXcVEjYiINECMCAmcKrz3fRL/Xk+LFh8ePxRvo4RIz3csSob4tCciIuliPhwRY1wXijuRMd9/RnwIHC8GLnAQm3rm5psWJTt8zhMRkVwxweLQaFex6G7k36tpekLPyFAYREZ8bc0R80EEjh8oFjhsEj1z822Lkhc+44mISKIY8f7AH2Lgkvviy9+LaXoGdqLjkpki6/QWYuzpUPE1VwsU4wcuEA6begrmapSc8OlORETSxLzbJ0a6LRcP/p+liWztvcUfdSoK02zuYo/jaHEqNC5VEx8CxwnXBQ5iM7dAKRnhc52IiOSIeSv2jHATAQ+//LPlaZC9o/D+o7pIixLP/C7CZ/BuUWPUSfEpLlcLEcfGuQr/6ptErzyGUkMnUhcmakREJEGMeLNnuHBf+VhE/bOYlkN0njZCVEujaMRhJPL39hHuuxzFqJNfq0FjQo79vQXaSzBXo+SAiRoREaldzOudYqjbavH4nyzNUOTsMk0Mr5Lm3/3SjOxFb5/BYrfjH+LE12U1EXLs7yrQXnkEczXSdUzUiIhIvWJeie1D3cW6p1F/36EnDHN1FdOHVxapf9DV1si+l/AZsks4jDzx/y3Qv6tAuQVKuo6JGhERqVGMeLHVSwxe/0z8k6YZ5hZdpw8VFc1/NnvASOTr5SM8djqKESc+cguUkhUmakREpDbRzzcLzyEbRNA/WZqRyNN9uhhW0fzXI6IM84mePkPETscR4vhHboFS8sFEjYiI1CP6udjo4Sk2P4/++w49YZS3u/DxqiBSJeDbDfP1FNM9dgrH4cfFR26BUjLBRI2IiNQgWgStHyy8tj4X/6RpRnmFs4+XKJeQLC2Oocjn7CM8dzqIYX99swXq6i8cNvfmFijpJCZqRESkctHP1gr3odvFy3+yNOOv587KmiXugQzzih7TPcUOx2Hir5C/t0D/miBc/R3F5t7cAiXdw0SNiIhUK/qJWD1omNj56v9bnsZxlZxlRSLTtDiGeXsIH8+dwmHoMRHy9xboXxNchb/jZtGby2qkY5ioERGRCkWLxysHieG7X/9/y9M4v3DxHSLKmCb1MQ3jChA8dziIocdC/t4C/UtMcPUXjtwCJR3DRI2IiFQohcjabrW4207JD2uYR/Te8Vj0VvLDEmkaJmpEREREGoqJGhEREZGGYqJGREREpKGYqBERERFpKCZqRERERBqKiRoRERGRhmKiRvEyMDD4oq+vHxUREaEvOxYiIm0VHh4e97exsXG45FBIizBRo3gZGRlFGBoaRn769ImJGhFREsW+hsb9nSpVqo+SQyEtwkSN4mVubh5iamoaGhQUlFJ2LERE2ur58+ciJiZGWFlZvZQdC2kPJmoUrwwZMrxKmzbt+9u3b1vIjoWISFvFvobG/Z03b96bkkMhLcJEjeKVJUuWJ5aWlq/PnTuXQ3YsRETa6vz583ErakWLFr0gOxbSHkzUKF7Zs2e/nzlz5qcHDx6M+fjxo16qVKlkh0REpFXCwsLEqVOnRIoUKaIqVqwYKDse0h5M1CheqVOn/lCsWLHze/furbljxw6zli1byg6JiEirXLhwQTx69EhUqFDhmLW19XPZ8ZD2YKJGCVKrVq09Cxcu7Dpv3jyzpk2bomWH7JCIiLRCVFSU2L9/v3j37l20i4vLLD09vRjZMZH24LstJQhW1EqXLn1q/fr1drt37xb169eXHRIRkVa4efOmOHz4sLC1tb1Zr169HbLjIe3CRI0SBH3UevfuPXvnzp11/f39zUqUKCFsbGxkh0VEpNHQO23Xrl3i7t274X/88cdstDqSHRNpFyZqlGA4W9GhQ4dlsXrF/hH9+vUTJiYmssMiItJI0dHR4ty5c2LlypWo9AzEahq3PSmxmKhRgmFVbdSoUSOPHz9ebvny5UVz584tGjZsKPT1ObCAiOh7aHA7duxYjI566uzsPM/W1vaR7JhI+zBRo0RB89uZM2f2adq06QZfX9+MefPmFQUKFJAdFhGRxvHw8BBXrlwJdXV1XdygQYNtmJksOybSPkzUKNFQVDBp0qQh7u7uU0aOHGk5ceJEvRw5cqA/kOzQiIikwnZncHCwiH2NxNm0yNatW693c3PzTpkyZZjs2Eg7MVGjRMMWaMOGDbc8fvw4K1bXevToYeXp6alXuXJlYWxsLDs8IiIpvnz5Iq5duyZmzJghdu7cGVGnTp3df8TCCD7ZsZH2YqJGSYIXHlSBpkuX7t3kyZMH9+/f3zb2Y4Eea6wGJaLkJjQ0VBw4cEDMnTtXXL9+/UP37t0XDxw4cBrPpdHvYqJGSWZhYfG2a9euC7Nly/bAy8trfGzCVvj06dOiVatWomrVqqwIJaJk4cqVK2L58uUCPSajo6OfeHp6+nTp0mURLmRlx0baj4ka/Racu6hTp86u/PnzX/P29nYLCAjoGBgYmKpYsWJxCVvt2rUFZ4MSka4JDw8XZ86cEatWrYpbSQsODo4sXbp04NChQ8ehlRHPpJGyMFGj35YiRYpoDG738fEZ0LJlyzVjx44ddvTo0UqxL17GpqamepUqVcIfUahQIWFnZyfSpEnD1TZSupiYr+2pIiIiJEdCuiYyMlKEhITEtdvAGbSTJ0+KgwcPxjx9+jRGT08vOnPmzE9nzJgxOvbidDUb2pKyMVEjpTEwMPgSm5Ad3b59e/3Tp0+XWrNmTcvAwMCKN27cSBd75ZkqNDTUNPYFz/DLly8G0dHRLBEllbCyspIdAukYXIziDwqpYi8yP5uZmX3COd0KFSpcQauiunXr7sT9suMk3cREjZQOL2bly5f/C38+fPiQ+sqVKwVv3bqVB1Wib9++tUDCFhERYSQ7TtIdeJ4ZGRlFYLvp1atXGdDvT3ZMpDtwEYrnlrm5eUjWrFkfYwehUKFCl21sbIKQwMmOj3QbEzVSqdSpU39QJG2yYyHd9f79+7TGxsbhWNUICgqywRuo7JiIiJSBiRoRab1v+1QxSSMiXcJEjYiIiEhD/Q8pwSzrCrB0OwAAAABJRU5ErkJggg==;" vertex="1" parent="1">
          <mxGeometry x="120" y="40" width="618" height="345" as="geometry" />
        </mxCell>
      </root>
    </mxGraphModel>
  </diagram>
</mxfile>
